Coordinates
version=1
nRows=19
nColumns=36
inDegrees=yes

Units are S.I. units (second, meters, Newtons, ...)
If the header above contains a line with 'inDegrees', this indicates whether rotational values are in degrees (yes) or radians (no).

endheader
time	pelvis_tilt	pelvis_list	pelvis_rotation	pelvis_tx	pelvis_ty	pelvis_tz	hip_flexion_r	hip_adduction_r	hip_rotation_r	knee_angle_r	knee_angle_r_beta	ankle_angle_r	subtalar_angle_r	mtp_angle_r	hip_flexion_l	hip_adduction_l	hip_rotation_l	knee_angle_l	knee_angle_l_beta	ankle_angle_l	subtalar_angle_l	mtp_angle_l	lumbar_extension	lumbar_bending	lumbar_rotation	arm_flex_r	arm_add_r	arm_rot_r	elbow_flex_r	pro_sup_r	arm_flex_l	arm_add_l	arm_rot_l	elbow_flex_l	pro_sup_l
     44.50000000	      3.80487059	     -2.42085078	      1.58992695	      0.66525983	      1.06252733	      0.89111438	     -3.72667617	      5.13105837	     -7.75894394	      9.35599302	      0.16329288	     10.74524288	     -2.51793530	     -7.49999987	     22.10291540	     -6.85165507	      1.19647570	     55.15176841	      0.96257995	     -2.46911093	    -15.15993057	     -7.49999987	    -17.79420809	      6.70130600	      2.08202636	     13.34594798	    -11.65703736	     -1.73396912	     28.34506116	     75.23024010	      3.23254587	     -6.21189354	     -5.30467686	     20.76169464	     68.51893365
     44.51666670	      3.61017210	     -1.96050767	      1.50804527	      0.66464650	      1.06341262	      0.89126088	     -5.03667251	      4.66781660	     -8.04983407	      8.43074026	      0.14714418	     10.91967875	     -1.99783271	     -7.49999987	     22.98085206	     -6.31461046	      0.63274835	     50.86452700	      0.88775347	     -1.48983909	    -14.74117697	     -7.49999987	    -17.83712459	      6.14682171	      1.87115866	     14.38269361	    -11.75581785	     -2.00982877	     30.27565400	     74.72439615	      1.61477006	     -5.93796210	     -5.66837857	     19.45062531	     68.10887097
     44.53333330	      3.16529811	     -1.53540410	      1.13782456	      0.66487628	      1.06390887	      0.89196517	     -6.13575317	      4.22875193	     -7.88548900	      7.34231961	      0.12814765	     11.28644042	     -1.47731280	     -7.49999987	     24.00357991	     -5.95889814	     -0.32264101	     46.32847666	      0.80858446	     -0.61690779	    -13.70991557	     -7.49999987	    -17.54239057	      5.47216497	      2.53795727	     14.50898094	    -12.20152963	     -2.50436632	     32.68269021	     74.82838682	      0.55277991	     -5.51000655	     -6.52520325	     17.05874701	     67.97891939
     44.55000000	      2.91461838	     -1.18303854	      1.04061444	      0.66482070	      1.06288112	      0.89219339	     -7.58979029	      3.90979227	     -7.88277547	      6.03769556	      0.10537767	     11.74794916	     -0.95126421	     -7.49999987	     24.71533528	     -5.54262839	     -1.02273916	     41.47111996	      0.72380759	     -0.41721126	    -12.93750786	     -7.49999987	    -17.43693045	      4.96095839	      2.39322230	     15.04973710	    -12.26545612	     -2.91177893	     34.25491762	     74.44194051	     -1.11516344	     -5.42284085	     -6.73047084	     15.86210487	     67.67321060
     44.56666670	      2.64366739	     -0.97099912	      0.91439934	      0.66398091	      1.06126967	      0.89207901	     -9.13334636	      3.72772184	     -7.66327477	      4.70680770	      0.08214929	     12.11561653	     -0.45359215	     -7.49999987	     25.25517771	     -5.23690560	     -1.72461852	     36.29152497	      0.63340660	     -0.20933677	    -11.73876572	     -7.49999987	    -17.28672133	      4.60318437	      2.73700586	     15.02220552	    -12.58979974	     -3.50561893	     36.28595393	     74.55565768	     -2.47376947	     -5.31883341	     -6.89216453	     14.42459196	     67.59630458
     44.58333330	      2.18578604	     -0.76011947	      0.80159217	      0.66248275	      1.05948014	      0.89164014	    -10.54749859	      3.53553879	     -7.10002526	      3.46362499	      0.06045166	     11.78744607	     -0.68373690	     -7.49999987	     25.75050796	     -4.74741395	     -2.13791925	     30.63130779	      0.53461718	     -0.18429838	    -10.72187686	     -7.49999987	    -16.82635158	      4.23818988	      3.14366809	     15.06789636	    -12.94324694	     -3.73984723	     37.14157713	     74.17836545	     -4.05851379	     -5.28887288	     -6.87128959	     13.71926647	     67.28191739
     44.60000000	      2.12832187	     -0.63596662	      1.08793284	      0.66070841	      1.05748102	      0.89064524	    -12.31426482	      3.45698754	     -7.49392712	      2.55367376	      0.04457002	     11.88664412	      0.32351420	     -7.49999987	     25.73607139	     -4.08880761	     -1.99578666	     24.71655800	      0.43138532	      0.79873410	     -8.37274254	     -7.49999987	    -16.98715572	      4.14529907	      2.78676630	     15.15119014	    -13.11568726	     -4.00617407	     38.71464777	     74.05109564	     -5.50807122	     -5.30610709	     -6.44948413	     12.80068376	     67.04914811
     44.61666670	      1.70027511	     -0.50767055	      1.38466498	      0.66016529	      1.05440058	      0.88922089	    -13.50076698	      3.36340060	     -7.72799469	      2.03712531	      0.03555454	     11.65256900	      0.61951811	     -7.49999987	     25.95261444	     -3.32571520	     -1.39363411	     18.70225561	      0.32641594	      1.99905023	     -6.08541996	     -7.49999987	    -16.60769105	      4.02466607	      2.49565514	     15.19599296	    -13.36564664	     -3.79283534	     39.41167467	     74.14208945	     -6.94788438	     -5.29873820	     -5.88512991	     12.18928719	     66.63214449
     44.63333330	      1.24091516	     -0.41716851	      1.71599114	      0.66138721	      1.05109696	      0.88750828	    -14.41872725	      3.32747132	     -7.78917234	      1.83376954	      0.03200532	     11.53753639	      0.45069617	     -7.49999987	     26.23646855	     -2.64864602	     -0.42480787	     13.36774907	      0.23331123	      3.63107003	     -3.69166110	     -7.49999987	    -16.20161602	      3.91077250	      1.96444609	     15.39958894	    -13.46764408	     -3.45314373	     39.96065989	     73.72795307	     -8.29364007	     -5.22474069	     -5.67955231	     11.55398962	     66.13118748
     44.65000000	      0.92033393	     -0.24948140	      2.19870786	      0.66466865	      1.04792311	      0.88644308	    -15.30827468	      3.26235878	     -8.30397667	      1.80362206	      0.03147914	     11.89748203	      0.82301196	     -7.49999987	     26.52170272	     -1.91401852	      1.02799275	      9.38740483	      0.16384112	      5.21682500	     -2.11509719	     -7.49999987	    -15.84892676	      3.61085361	      1.37162157	     15.70372283	    -13.65738650	     -2.38395242	     39.96492944	     73.84464761	     -9.62881704	     -5.24510079	     -5.75791174	     11.48685114	     65.82802019
     44.66666670	      0.81996971	      0.03005997	      2.58603518	      0.66786369	      1.04391805	      0.88701679	    -16.26132500	      3.09096418	     -8.58099164	      1.94898060	      0.03401613	     12.44554619	      1.03683406	     -7.49999987	     26.72441465	     -1.24131037	      2.23862705	      7.09164623	      0.12377258	      6.53814305	     -1.16612941	     -7.49999987	    -15.73484619	      3.03976769	      1.05950978	     15.92054847	    -13.68064203	     -1.76233806	     40.02108527	     72.94771285	    -10.64709854	     -5.42010289	     -6.20496432	     11.19286049	     65.25964515
     44.68333330	      0.79650944	      0.33209848	      2.93901024	      0.66835933	      1.03858892	      0.88728177	    -17.12631120	      2.86923006	     -8.64714280	      2.31297811	      0.04036908	     13.08136544	      0.96488475	     -7.49999987	     27.02852240	     -0.62131905	      2.96394024	      6.61785031	      0.11550328	      7.46096201	     -0.60620332	     -7.49999987	    -15.60569920	      2.41646358	      0.93448963	     16.13075140	    -13.75554766	     -1.01734265	     39.79639948	     72.96650208	    -11.33213097	     -5.70492814	     -7.28483145	     10.67453007	     65.27513846
     44.70000000	      0.89441992	      0.67633281	      3.22437394	      0.66747346	      1.03192533	      0.88525066	    -17.96182682	      2.51846858	     -8.56404768	      3.01544664	      0.05262947	     13.75928162	      0.62884840	     -7.49999987	     27.30052269	      0.00664027	      3.21566644	      7.75130185	      0.13528574	      7.73462392	     -0.57354486	     -7.49999987	    -15.62676892	      1.77894938	      0.80992984	     16.45473323	    -13.75926115	     -0.28903107	     39.26762116	     72.75224041	    -11.89791683	     -6.06896849	     -8.92533552	     10.48513442	     65.99778112
     44.71666670	      0.97642458	      0.95418264	      3.37850779	      0.66942043	      1.02490133	      0.88062431	    -18.67366137	      2.06374094	     -8.30374205	      4.16149041	      0.07263171	     14.34715058	      0.29952065	     -7.49999987	     27.61142230	      0.54265200	      3.10339055	     10.16516267	      0.17741556	      7.36777006	     -0.86186006	     -7.49999987	    -15.47144332	      1.28024797	      1.06279738	     16.45136138	    -14.05586200	      0.48137161	     38.69848014	     72.57379618	    -12.06475249	     -6.42350682	    -10.36765405	      9.97890393	     66.42649463
     44.73333330	      1.13918301	      1.20761827	      3.25904196	      0.67576003	      1.01920754	      0.87449939	    -19.46522341	      1.44310958	     -7.49315193	      5.66209937	      0.09882228	     14.21575511	     -0.72988550	     -7.49999987	     27.76658304	      0.96530322	      2.69082519	     13.35436256	      0.23307760	      6.38862717	     -1.30329671	     -7.49999987	    -15.26598104	      0.89796026	      1.47451504	     16.12692233	    -14.33657097	      0.65516952	     38.08519582	     72.44583234	    -12.10228726	     -6.64706965	    -11.19211391	      9.40994467	     66.56231599
     44.75000000	      1.38276513	      1.49264571	      3.00598308	      0.68399059	      1.01663452	      0.86825105	    -20.27270140	      0.64806358	     -6.77139253	      7.51228679	      0.13111414	     13.54837601	     -1.64151918	     -7.49999987	     27.67300320	      1.38710410	      2.22350323	     16.66798038	      0.29091114	      5.13483769	     -1.72317651	     -7.49999987	    -14.99661207	      0.54165146	      2.19348719	     15.24666230	    -14.79887158	      0.75301113	     37.30450249	     72.16239819	    -12.06511090	     -6.80109524	    -11.93839225	      9.23714653	     66.48074995
     44.76666670	      1.57635321	      1.87290351	      2.78620800	      0.69085905	      1.01646913	      0.86327467	    -20.90852722	     -0.31355538	     -6.55777417	      9.55529364	      0.16677134	     12.68462634	     -1.93980140	     -7.49999987	     27.47543623	      1.93592644	      1.97334202	     19.69299054	      0.34370752	      3.75809068	     -2.35474128	     -7.49999987	    -14.62165890	      0.17476738	      2.44652435	     14.23367325	    -14.93314708	      0.74623667	     36.39744667	     73.31146197	    -11.95308603	     -6.62468102	    -17.89016472	      9.09699096	     72.81809829
     44.78333330	      1.65885603	      2.28082314	      2.47014580	      0.69508109	      1.01662425	      0.86042266	    -21.10006214	     -1.32555722	     -5.84789869	     12.01051465	      0.20962303	     11.54332956	     -2.89421768	     -7.49999987	     27.30230250	      2.41965692	      1.69142628	     22.39778147	      0.39091503	      2.71035977	     -3.01687669	     -7.49999987	    -14.12430721	     -0.25409448	      3.39227534	     12.58755852	    -15.02860522	      0.07476965	     35.58701843	     72.57472513	    -11.16347102	     -6.89274713	    -17.91252388	      8.44027604	     72.54690803
     44.80000000	      1.78870304	      2.77552704	      2.18200542	      0.69759366	      1.01650024	      0.85884643	    -20.78824499	     -2.40138190	     -4.86757681	     15.33858677	      0.26770884	     10.04356399	     -4.33465256	     -7.49999987	     26.97039264	      2.97237875	      1.51218962	     24.79345001	      0.43272734	      2.05549878	     -3.90339360	     -7.49999987	    -13.75364720	     -0.79109377	      4.17288642	     11.08051479	    -14.86216645	     -0.57181349	     34.63005304	     71.93615702	    -10.22878551	     -7.30024866	    -17.59214628	      8.11983782	     72.34708494
